<svg width="32" height="32" viewBox="0 0 32 32" fill="none" xmlns="http://www.w3.org/2000/svg">
  <rect width="32" height="32" rx="6" fill="url(#gradient)"/>
  <defs>
    <linearGradient id="gradient" x1="0%" y1="0%" x2="100%" y2="100%">
      <stop offset="0%" style="stop-color:#5B5CE6"/>
      <stop offset="100%" style="stop-color:#3B82F6"/>
    </linearGradient>
  </defs>
  <!-- S harfi - üst kısım -->
  <path d="M6 8L16 4L26 8L26 13L16 17L6 13Z" fill="white" fill-opacity="0.95"/>
  <path d="M16 4L26 8L26 13L16 17V11L20 9L16 7V4Z" fill="white" fill-opacity="0.7"/>
  
  <!-- S harfi - orta bağlantı -->
  <path d="M16 17L26 13V19L16 15V17Z" fill="white" fill-opacity="0.9"/>
  
  <!-- S harfi - alt kısım -->
  <path d="M26 19L16 15L6 19L6 24L16 28L26 24Z" fill="white" fill-opacity="0.95"/>
  <path d="M6 19L16 15L6 24L16 28V22L12 24L16 26V28Z" fill="white" fill-opacity="0.7"/>
</svg>
